<svg version="1.2" xmlns="http://www.w3.org/2000/svg" viewBox="0 0 66 49" width="66" height="49">
	<title>logo-svg</title>
	<defs>
		<clipPath clipPathUnits="userSpaceOnUse" id="cp1">
			<path d="m14.5 0h45v40h-45z"/>
		</clipPath>
	</defs>
	<style>
		.s0 { fill: none;stroke: #3294f8;stroke-width: 1.5 } 
		.s1 { fill: #3294f8 } 
	</style>
	<g id="Clip-Path" clip-path="url(#cp1)">
		<g id="Layer">
			<path id="Layer" class="s0" d="m33.2 18.8c0.7 0.6 0.7 1.8 0 2.4l-15 15c-0.6 0.7-1.8 0.7-2.4 0-0.7-0.6-0.7-1.8 0-2.4l13.2-13.3 0.5-0.5-0.5-0.5-13.2-13.3q0 0 0 0c-0.7-0.6-0.7-1.8 0-2.4q0 0 0 0 0 0 0 0c0.6-0.7 1.8-0.7 2.4 0q0 0 0 0zm23.8 14.4c1 0 1.8 0.8 1.8 1.8 0 1-0.8 1.7-1.8 1.7h-22.5c-1 0-1.7-0.7-1.7-1.7 0-1 0.7-1.8 1.7-1.8z"/>
		</g>
	</g>
	<path id="Layer" fill-rule="evenodd" class="s1" d="m-22.5 78.3v7.5q-1.7 1.5-6.8 1.5-1 0-1.7-0.1-0.8-0.1-1.4-0.2-0.6-0.1-1.1-0.4-0.4-0.4-0.7-0.7-0.4-0.3-0.6-0.9-0.2-0.6-0.3-1.2-0.2-0.5-0.2-1.5-0.1-0.9-0.1-1.8-0.1-0.9-0.1-2.2 0-1.2 0.1-2 0-0.8 0-1.7 0.1-0.8 0.2-1.4 0.1-0.6 0.3-1.1 0.2-0.6 0.5-1 0.2-0.3 0.6-0.7 0.4-0.3 0.9-0.5 0.5-0.2 1.1-0.4 0.6-0.1 1.4-0.2 0.7 0 1.7 0 0 0 0.1 0 0.9 0 1.3 0 0.4 0 1.1 0.1 0.8 0 1.1 0.2 0.4 0.2 0.9 0.5 0.5 0.3 0.8 0.7 0.2 0.5 0.4 1.2 0.2 0.7 0.2 1.6 0 0.2 0 0.6l-2.1 0.4-0.1-2.4q-0.1-0.7-0.9-0.9-0.8-0.2-3.2-0.2-1.5 0-2.3 0.2-0.9 0.1-1.2 0.5-0.3 0.4-0.4 1.2-0.1 2.4-0.1 5 0 2.5 0.1 4.9 0.1 1.2 0.2 1.6 0.3 0.6 1.1 0.8 0.7 0.2 2.6 0.2 4 0 4.4-0.6 0-1.2 0-4.9h-2.9l-0.2-1.7zm5.9 8.7h-2.4v-17.5h2.4zm13.5-15.6h-4.6v15.6h-2.4v-15.6h-4.4v-1.8h11.4zm14.5 15.6h-2.4v-8h-7.8v8h-2.3v-17.4h2.3v7.6h7.8v-7.6h2.4zm16.9-17.5v10.9q0 1.5-0.1 2.5-0.1 1-0.4 1.8-0.4 0.7-0.8 1.2-0.5 0.5-1.3 0.8-0.7 0.3-1.7 0.4-0.9 0.2-2.3 0.2-1.3 0-2.2-0.2-0.9-0.1-1.7-0.3-0.8-0.3-1.2-0.8-0.5-0.5-0.9-1.2-0.3-0.8-0.4-1.9-0.2-1-0.2-2.5v-10.9h2.4c0 0.7 0 12.4 0 12.7q0 0.4 0.1 1 0 0.6 0.1 0.9 0.1 0.2 0.3 0.5 0.3 0.4 0.5 0.5 0.3 0.1 0.8 0.2 0.5 0.1 1 0.1 0.6 0.1 1.4 0.1 1 0 1.7-0.1 0.6-0.1 1.1-0.2 0.5-0.2 0.8-0.4 0.2-0.3 0.4-0.7 0.2-0.5 0.2-0.9 0.1-0.5 0.1-1.3l-0.1-12.4zm16.1 12.4q0 0.8-0.1 1.3 0 0.6-0.1 1.1-0.1 0.5-0.2 0.8-0.1 0.4-0.3 0.7-0.3 0.3-0.5 0.4-0.2 0.2-0.6 0.4-0.4 0.1-0.7 0.2-0.4 0.1-1 0.1-0.6 0.1-1.2 0.1-0.5 0-1.4 0h-6.2v-17.5h6.6q1.3 0 2.2 0.2 0.9 0.1 1.6 0.4 0.6 0.4 0.9 1 0.3 0.7 0.4 1.7v1.2q0 0.8-0.1 1.3-0.1 0.5-0.2 1-0.1 0.4-0.4 0.6-0.3 0.2-0.8 0.4-0.4 0.1-1 0.3 0.8 0 1.4 0.3 0.5 0.3 0.9 0.7 0.3 0.3 0.5 0.9 0.2 0.6 0.2 1.1 0.1 0.6 0.1 1.3zm-3-8.4q0-0.5 0-0.7 0-0.2 0-0.5-0.1-0.3-0.2-0.4 0-0.1-0.2-0.3-0.3-0.1-0.5-0.2-0.2 0-0.7 0-0.5-0.1-0.9-0.1-0.5 0-1.3 0h-3.2v5.6h2.4q1.5 0 2.5-0.1 0.9-0.1 1.4-0.3 0.5-0.2 0.6-0.5 0.1-0.2 0.1-0.6c0 0 0-1.9 0-1.9zm0.7 7.9q-0.1-1.4-0.1-1.8-0.2-0.6-0.8-0.9-0.8-0.3-3.6-0.3-0.2 0-0.4 0h-2.8v6.8h4.5q1.4 0 2.1-0.2 0.7-0.3 0.9-0.7 0.2-0.5 0.2-1.4zm22.5 0.6q0 0.7-0.1 1.3 0 0.6-0.1 1-0.1 0.5-0.2 0.9-0.1 0.3-0.4 0.6-0.2 0.3-0.4 0.5-0.2 0.2-0.6 0.3-0.4 0.2-0.8 0.2-0.3 0.1-0.9 0.2-0.6 0-1.2 0-0.5 0-1.4 0h-6.2v-17.4h6.6q1.3 0 2.2 0.1 0.9 0.1 1.5 0.5 0.7 0.3 1 1 0.3 0.6 0.3 1.6v1.3q0 0.8 0 1.3-0.1 0.5-0.2 0.9-0.2 0.4-0.5 0.7-0.2 0.2-0.7 0.4-0.4 0.1-1 0.2 0.8 0.1 1.3 0.4 0.6 0.2 0.9 0.6 0.4 0.4 0.6 1 0.2 0.5 0.2 1.1 0.1 0.5 0.1 1.3zm-3-8.5q0-0.5 0-0.7 0-0.2 0-0.5-0.1-0.3-0.2-0.4 0-0.1-0.3-0.2-0.2-0.2-0.4-0.2-0.2 0-0.7-0.1-0.5 0-1 0-0.4 0-1.2 0h-3.2v5.6h2.4q1.5 0 2.5-0.1 0.9-0.1 1.4-0.3 0.4-0.3 0.6-0.5 0.1-0.2 0.1-0.7c0 0 0-1.8 0-1.9zm0.6 7.9q0-1.4-0.1-1.7-0.1-0.7-0.8-0.9-0.8-0.3-3.5-0.3-0.2 0-0.4 0h-2.8v6.8h4.5q1.4 0 2-0.3 0.7-0.2 1-0.7 0.2-0.4 0.2-1.3zm14.3 5.6h-8.8v-17.5h2.3v15.7h6.8zm9.2 0.3q-1 0-1.8-0.1-0.8 0-1.5-0.2-0.7-0.2-1.1-0.3-0.5-0.2-0.9-0.6-0.4-0.4-0.6-0.7-0.3-0.4-0.4-1.1-0.2-0.7-0.3-1.2-0.1-0.5-0.1-1.6-0.1-1.1-0.1-1.8 0-0.8 0-2.2 0-1.8 0.1-2.9 0.1-1.1 0.4-2.1 0.2-1 0.7-1.6 0.4-0.5 1.2-0.9 0.8-0.5 1.8-0.6 1.1-0.1 2.6-0.1 1.4 0 2.4 0.1 1 0.1 1.8 0.5 0.8 0.4 1.2 0.9 0.5 0.5 0.8 1.4 0.3 0.9 0.4 1.9 0.2 1.1 0.2 2.6 0 4.4-0.2 5.7-0.2 2.4-1.1 3.4-0.9 1.1-3 1.4-1.1 0.1-2.5 0.1zm1.7-16.2q-0.7 0-1.7 0-1 0-1.7 0-0.7 0.1-1.2 0.2-0.5 0.2-0.7 0.3-0.3 0.2-0.5 0.6-0.1 0.4-0.2 0.8 0 0.4-0.1 1.1 0 2.2 0 4.4 0 3.3 0.2 4.5 0.3 1.9 1 2.1 0.6 0.4 3.2 0.4 2.5 0 3.1-0.4 0.2 0 0.4-0.2 0.2-0.2 0.3-0.5 0.2-0.4 0.2-0.7 0.1-0.3 0.2-0.8 0.1-0.5 0.1-0.9 0-0.4 0-1 0.1-0.7 0.1-1.1 0-0.4 0-1.1 0-2.3-0.1-4.7 0-0.7-0.1-1.1 0-0.4-0.2-0.8-0.1-0.4-0.4-0.6-0.3-0.1-0.8-0.3-0.5-0.1-1.1-0.2zm21.1 7.2v7.5q-1.7 1.5-6.8 1.5-0.9 0-1.7-0.1-0.8-0.1-1.4-0.2-0.6-0.1-1.1-0.4-0.4-0.4-0.7-0.7-0.4-0.3-0.6-0.9-0.2-0.6-0.3-1.2-0.2-0.5-0.2-1.5-0.1-0.9-0.1-1.8 0-0.9-0.1-2.2 0.1-1.2 0.1-2 0-0.8 0-1.7 0.1-0.8 0.2-1.4 0.1-0.6 0.3-1.1 0.2-0.6 0.5-1 0.2-0.3 0.6-0.7 0.4-0.3 0.9-0.5 0.5-0.2 1.1-0.4 0.6-0.1 1.4-0.2 0.7 0 1.7 0 0 0 0.2 0 0.8 0 1.2 0 0.4 0 1.1 0.1 0.8 0 1.1 0.2 0.4 0.2 0.9 0.5 0.5 0.3 0.8 0.7 0.2 0.5 0.4 1.2 0.2 0.7 0.2 1.6 0 0.2 0 0.6l-2.1 0.4-0.1-2.4q-0.1-0.7-0.9-0.9-0.8-0.2-3.2-0.2-1.5 0-2.3 0.2-0.9 0.1-1.2 0.5-0.3 0.4-0.4 1.2-0.1 2.4-0.1 5 0 2.5 0.1 4.9 0.1 1.2 0.2 1.6 0.3 0.6 1.1 0.8 0.7 0.2 2.6 0.2 4 0 4.4-0.6 0-1.2 0-4.9h-2.9l-0.2-1.7z"/>
</svg>